<?xml version="1.0" encoding="UTF-8" standalone="no"?>
<!DOCTYPE svg PUBLIC "-//W3C//DTD SVG 1.1//EN" "http://www.w3.org/Graphics/SVG/1.1/DTD/svg11.dtd">
<svg width="100%" height="100%" viewBox="0 0 512 512" version="1.1" xmlns="http://www.w3.org/2000/svg" xmlns:xlink="http://www.w3.org/1999/xlink" xml:space="preserve" xmlns:serif="http://www.serif.com/" style="fill-rule:evenodd;clip-rule:evenodd;stroke-linejoin:round;stroke-miterlimit:2;">
    <g>
        <g transform="matrix(0.499512,0,0,0.5,0.000244,-0.000061)">
            <path d="M501.002,192.578L263.554,192.747L190.805,192.469C180.364,192.467 166.412,192.061 156.259,192.734L156.328,572.32L156.254,665.178C156.228,681.568 156.067,697.993 156.308,714.384C156.882,753.362 174.27,780.009 195.397,810.474C205.183,821.56 209.282,827.67 220.462,838.156C227.579,844.832 238.423,853.107 244.376,859.053C251.019,864.284 256.931,869.383 264.222,873.741L264.054,694.131L263.993,664.33C263.983,655.685 263.789,647.347 264.363,638.483C264.367,630.898 273.316,621.676 280.344,620.094C285.25,618.99 295.265,617.923 300.951,618.383C315.01,619.519 336.466,613.464 347.12,624.749C349.957,627.754 353.507,634.132 353.95,638.35C354.303,649.841 353.847,661.992 353.778,673.503L353.851,721.534L353.784,856.363C353.711,880.482 354.081,906.551 353.153,930.503C368.878,938.136 384.14,948.704 400.041,956.356C411.178,961.715 422.004,967.062 433.365,971.989C440.286,974.991 448.828,977.821 455.352,981.018L455.56,944.213C455.576,938.71 455.315,928.973 455.8,923.66C455.225,915.442 455.678,905.08 455.65,896.686L455.503,843.951L455.665,669.516L455.799,541.753L455.858,500.458C455.871,492.622 455.71,484.742 456.164,476.922C456.451,471.976 458.032,468.372 461.389,464.664C464.782,460.892 470.175,457.526 475.427,457.452C488.995,457.25 502.641,456.995 516.203,456.831C523.209,456.643 531.724,457.271 536.983,462.591C545.55,471.256 544.088,485.62 544.106,496.703L544.192,526.013L544.173,631.169L543.797,980.73C552.817,977.143 562.454,971.773 571.273,967.519C588.834,959.049 606.457,949.922 623.262,940.032C630.694,935.658 637.799,931.984 644.347,926.325C643.971,914.73 644.266,901.713 644.256,889.944L644.214,820.03L643.716,631.918C643.686,622.326 643.55,612.696 643.656,603.106C643.785,591.473 641.778,583.062 650.928,574.025C653.999,570.936 657.831,568.713 662.037,567.58C669.444,565.656 697.665,567.13 706.618,566.601C714.937,566.109 723.174,569.167 729.093,575.482C732.527,579.185 734.67,583.9 735.203,588.922C735.93,595.307 735.354,613.281 735.353,620.735L735.387,687.371L735.488,801.999C735.555,825.296 735.947,848.151 735.536,871.469C746.51,867.068 783.049,834.385 792.598,824.431C812.213,803.983 833.187,771.437 839.134,743.473C844.69,717.343 843.026,685.835 843.057,658.672L843.178,552.489L843.125,334.046C843.213,287.827 844.081,238.915 843.309,192.85C810.125,192.265 775.68,192.734 742.427,192.767L501.002,192.578Z" style="fill:rgb(225,183,114);"/>
        </g>
    </g>
</svg>
